<svg height="512pt" viewBox="0 0 512 512" width="512pt" xmlns="http://www.w3.org/2000/svg"><path d="m256 0c-140.699219 0-256 115.300781-256 256s115.300781 256 256 256 256-115.300781 256-256-115.300781-256-256-256zm0 0" fill="#e2e2e7"/><path d="m512 256c0 140.699219-115.300781 256-256 256v-512c140.699219 0 256 115.300781 256 256zm0 0" fill="#d3d3d8"/><path d="m481 256c0 124.199219-100.800781 225-225 225s-225-100.800781-225-225 100.800781-225 225-225 225 100.800781 225 225zm0 0" fill="#ececf1"/><path d="m481 256c0 124.199219-100.800781 225-225 225v-450c124.199219 0 225 100.800781 225 225zm0 0" fill="#e2e2e7"/><path d="m398.199219 127.300781-1.199219-12.300781-12.300781-1.199219c-3.898438-.300781-67.199219-6.601562-128.699219 4.199219-36.300781 6.601562-72.300781 19.199219-95.398438 42.601562-58.800781 58.800782-58.800781 131.996094 0 190.796876 29.398438 29.402343 62.398438 44.101562 95.398438 44.101562s66-14.699219 95.398438-44.101562c63.003906-62.996094 47.402343-217.800782 46.800781-224.097657zm0 0" fill="#a8d32a"/><path d="m351.398438 351.398438c-29.398438 29.402343-62.398438 44.101562-95.398438 44.101562v-277.5c61.5-10.800781 124.800781-4.5 128.699219-4.199219l12.300781 1.199219 1.199219 12.300781c.601562 6.296875 16.203125 161.101563-46.800781 224.097657zm0 0" fill="#93bf00"/><path d="m283.898438 249.402344 40.503906 13.496094-9.601563 28.5-54.601562-18.296876-18.898438 18.898438 14.699219 4.800781 26.101562 8.699219-9.601562 28.5-16.5-5.398438-38.402344-12.902343c-30.597656 30.601562-46.5 62.402343-32.097656 105.300781l-28.5 9.300781c-15.898438-46.800781-5.097656-91.5 39.300781-135.898437l-18.300781-54.902344 28.5-9.601562 13.5 40.800781 18.898438-18.898438-18.296876-54.601562 28.5-9.597657 6.898438 20.699219 6.597656 19.800781 46.5-46.199218 21 21zm0 0" fill="#93bf00"/><g fill="#81a713"><path d="m256 296.800781 26.101562 8.699219-9.601562 28.5-16.5-5.402344zm0 0"/><path d="m283.898438 249.402344 40.503906 13.496094-9.601563 28.5-54.601562-18.296876-4.199219 4.199219v-69l6.597656 19.800781 46.503906-46.199218 20.996094 20.996094zm0 0"/></g></svg>